# xmcd CD database file
# Copyright (C) 1993-1998 Ti Kan
# 
# Track frame offsets:
#     150
#     17490
#     30052
#     41382
#     51650
#     64667
#     76665
#     86780
#     109677
#     118575
#     128557
# 
# Disc length: 1893 seconds
# 
# Revision: 1
# Processed by: cddbd v1.4b41PL1 Copyright (c) Steve Scherf et al.
# Submitted via: DiscPlay 4.0.4
# 
DISCID=7b07630b
DTITLE=Kenny Jacks Band, The - Keep On Truckin'
DYEAR=1900
DGENRE=
TTITLE0=Convoy
TTITLE1=Eighteen Wheels
TTITLE2=How Fast Them Trucks Can Go
TTITLE3=Movin' On
TTITLE4=Me and Old C.B.
TTITLE5=Ode to 10-33
TTITLE6=Six Days on the Road
TTITLE7=Teddy Bear
TTITLE8=Truck Drivin' Man
TTITLE9=Rhythm of the Road
TTITLE10=Big City
EXTD=
EXTT0=
EXTT1=
EXTT2=
EXTT3=
EXTT4=
EXTT5=
EXTT6=
EXTT7=
EXTT8=
EXTT9=
EXTT10=
PLAYORDER=
